<svg width="365" height="46" fill="none" xmlns="http://www.w3.org/2000/svg" class="w-undefined"><path d="m25.596 15.576-13.304 5.968v7.279L22.849 34.5l10.556-8.88-7.809-10.044Z" fill="#AC1216"/><path d="m22.265 32.159-9.939-6.623L5.59 30.03c-.11.074-.205.168-.278.276a.952.952 0 0 0-.136.74c.03.126.084.245.162.35l5.742 7.817c.157.212.396.356.665.401.268.045.544-.013.768-.161l6.665-4.45a.42.42 0 0 1 .588.115.374.374 0 0 1 .058.205v9.694c0 .26.109.511.302.696.194.185.457.288.731.288h3.991c.274 0 .537-.103.73-.288a.962.962 0 0 0 .303-.696v-9.7a.38.38 0 0 1 .062-.201c.04-.06.095-.11.161-.143a.43.43 0 0 1 .423.024l6.652 4.456c.224.148.5.206.769.161a1.04 1.04 0 0 0 .665-.401l5.734-7.817a.949.949 0 0 0 .17-.732.98.98 0 0 0-.421-.634l-6.736-4.493-9.926 6.623a1.056 1.056 0 0 1-1.17 0ZM45.514 16.236 39.76 8.42a1.033 1.033 0 0 0-.662-.401 1.067 1.067 0 0 0-.765.16l-8.81 5.878a.427.427 0 0 1-.583-.119.38.38 0 0 1-.062-.2V.977A.939.939 0 0 0 28.8.605a.976.976 0 0 0-.223-.317 1.03 1.03 0 0 0-.333-.213A1.071 1.071 0 0 0 27.851 0h-10.01a1.06 1.06 0 0 0-.728.286.962.962 0 0 0-.305.693V13.73a.38.38 0 0 1-.06.204.405.405 0 0 1-.16.145.43.43 0 0 1-.426-.023L7.36 8.18a1.074 1.074 0 0 0-.769-.162 1.04 1.04 0 0 0-.665.402L.185 16.236a.948.948 0 0 0-.17.733.98.98 0 0 0 .422.633l11.89 7.934 9.938-6.629a1.075 1.075 0 0 1 1.182 0l9.92 6.629 11.882-7.934c.112-.072.208-.166.282-.274a.951.951 0 0 0 .143-.74.955.955 0 0 0-.16-.352Z" fill="#EA373C"/><path d="M67.786 21.367c-1.755 0-3.25-.303-4.483-.908-1.217-.62-2.142-1.56-2.774-2.817-.633-1.257-.949-2.848-.949-4.774 0-2.833.704-4.95 2.11-6.35 1.424-1.417 3.456-2.125 6.096-2.125 1.47 0 2.775.254 3.913.764 1.139.493 2.024 1.241 2.656 2.244.649.987.973 2.22.973 3.7h-4.15c0-.7-.143-1.297-.427-1.79-.27-.51-.657-.9-1.163-1.17-.49-.27-1.09-.406-1.802-.406-.886 0-1.613.183-2.182.55-.57.365-.988.89-1.257 1.575-.269.684-.403 1.512-.403 2.483v1.074c0 .97.134 1.806.403 2.507.269.684.68 1.21 1.233 1.575.57.35 1.297.526 2.182.526.76 0 1.4-.128 1.921-.383.538-.254.941-.628 1.21-1.122.284-.509.427-1.114.427-1.814h4.008c0 1.48-.317 2.714-.949 3.7-.617.987-1.494 1.727-2.632 2.22-1.123.494-2.443.74-3.961.74ZM81.303 21.367a7.147 7.147 0 0 1-1.541-.167c-.49-.096-.941-.27-1.352-.526a2.916 2.916 0 0 1-.949-1.098c-.237-.461-.356-1.042-.356-1.742 0-.908.19-1.648.57-2.22.379-.574.925-1.02 1.636-1.338.727-.334 1.597-.565 2.609-.692a28.148 28.148 0 0 1 3.439-.191v-.788c0-.366-.072-.668-.214-.907a1.333 1.333 0 0 0-.64-.573c-.269-.143-.633-.215-1.091-.215a3.78 3.78 0 0 0-1.091.143c-.3.096-.53.24-.688.43a.927.927 0 0 0-.237.645v.215h-3.795a1.035 1.035 0 0 1-.023-.191v-.24c0-.747.229-1.4.687-1.957.475-.557 1.147-.987 2.016-1.289.87-.302 1.921-.454 3.155-.454 1.154 0 2.158.144 3.012.43.87.287 1.549.724 2.04 1.313.505.59.758 1.361.758 2.316v5.371c0 .271.071.486.213.645.159.16.348.239.57.239h.806v2.411a5.24 5.24 0 0 1-.83.263c-.364.111-.806.167-1.328.167-.538 0-1.012-.072-1.423-.215a2.746 2.746 0 0 1-.996-.55 2.02 2.02 0 0 1-.522-.883h-.166a5.28 5.28 0 0 1-1.067.86 4.463 4.463 0 0 1-1.4.573c-.521.143-1.122.215-1.802.215Zm1.447-2.698c.38 0 .727-.056 1.043-.167.316-.111.585-.263.807-.454.237-.207.419-.453.545-.74.142-.286.214-.597.214-.93v-.836c-.902 0-1.676.063-2.325.19-.648.128-1.146.327-1.494.597-.348.271-.522.613-.522 1.027 0 .302.072.557.214.764.158.19.364.334.617.43.253.08.553.119.9.119ZM92.431 21.08V8.5h3.202l.284 1.79h.166c.317-.43.68-.803 1.091-1.122a4.323 4.323 0 0 1 1.4-.716 5.66 5.66 0 0 1 1.66-.239c.901 0 1.66.168 2.277.502a3.323 3.323 0 0 1 1.446 1.504c.332.668.498 1.52.498 2.554v8.308h-3.889v-7.759c0-.35-.048-.644-.143-.883a1.696 1.696 0 0 0-.355-.645 1.372 1.372 0 0 0-.593-.381 2.527 2.527 0 0 0-.806-.12c-.46 0-.862.112-1.21.334a2.275 2.275 0 0 0-.83.86c-.206.35-.309.764-.309 1.241v7.353h-3.889ZM110.833 21.367a7.15 7.15 0 0 1-1.542-.167 3.995 3.995 0 0 1-1.352-.526 2.915 2.915 0 0 1-.948-1.098c-.237-.461-.356-1.042-.356-1.742 0-.908.19-1.648.569-2.22.38-.574.925-1.02 1.637-1.338.727-.334 1.596-.565 2.608-.692a28.152 28.152 0 0 1 3.439-.191v-.788c0-.366-.071-.668-.213-.907a1.336 1.336 0 0 0-.641-.573c-.268-.143-.632-.215-1.091-.215-.411 0-.774.048-1.09.143-.301.096-.53.24-.688.43a.927.927 0 0 0-.237.645v.215h-3.795a1.023 1.023 0 0 1-.024-.191v-.24c0-.747.23-1.4.688-1.957.474-.557 1.146-.987 2.016-1.289.87-.302 1.921-.454 3.154-.454 1.154 0 2.158.144 3.012.43.87.287 1.55.724 2.04 1.313.506.59.759 1.361.759 2.316v5.371c0 .271.071.486.213.645.158.16.348.239.569.239h.807v2.411a5.26 5.26 0 0 1-.83.263c-.364.111-.807.167-1.329.167-.537 0-1.011-.072-1.422-.215a2.746 2.746 0 0 1-.997-.55 2.02 2.02 0 0 1-.521-.883h-.166a5.273 5.273 0 0 1-1.068.86 4.454 4.454 0 0 1-1.399.573c-.522.143-1.122.215-1.802.215Zm1.446-2.698c.38 0 .728-.056 1.044-.167.316-.111.585-.263.806-.454.237-.207.419-.453.546-.74.142-.286.213-.597.213-.93v-.836c-.901 0-1.676.063-2.324.19-.648.128-1.146.327-1.494.597-.348.271-.522.613-.522 1.027 0 .302.071.557.214.764.158.19.363.334.616.43.253.08.554.119.901.119ZM126.514 21.367c-1.059 0-1.976-.239-2.751-.716-.775-.478-1.368-1.202-1.779-2.173-.411-.97-.616-2.212-.616-3.724 0-1.48.205-2.698.616-3.653.427-.97 1.02-1.695 1.779-2.172.759-.478 1.652-.717 2.68-.717.49 0 .957.056 1.399.168a3.63 3.63 0 0 1 1.21.525c.364.239.672.533.925.883h.142V3.796h3.89V21.08h-3.178l-.285-1.742h-.166c-.427.684-.972 1.193-1.636 1.527-.665.335-1.408.502-2.23.502Zm1.21-3.056c.569 0 1.027-.127 1.375-.382.364-.27.625-.645.783-1.122.174-.493.261-1.066.261-1.719v-.573a5.71 5.71 0 0 0-.142-1.313 3.197 3.197 0 0 0-.427-1.027 1.94 1.94 0 0 0-.759-.668c-.301-.16-.664-.239-1.091-.239-.585 0-1.06.12-1.423.358-.348.24-.601.59-.759 1.05-.158.462-.237 1.035-.237 1.72v.835c0 .669.079 1.234.237 1.695.158.462.411.812.759 1.05.363.224.838.335 1.423.335ZM136.969 6.804V3.796h3.889v3.008h-3.889Zm0 14.276V8.5h3.889V21.08h-3.889ZM147.287 21.367a7.148 7.148 0 0 1-1.541-.167 3.995 3.995 0 0 1-1.352-.526 2.917 2.917 0 0 1-.949-1.098c-.237-.461-.355-1.042-.355-1.742 0-.908.189-1.648.569-2.22.379-.574.925-1.02 1.636-1.338.727-.334 1.597-.565 2.609-.692a28.152 28.152 0 0 1 3.439-.191v-.788c0-.366-.071-.668-.214-.907a1.329 1.329 0 0 0-.64-.573c-.269-.143-.632-.215-1.091-.215-.411 0-.775.048-1.091.143-.3.096-.53.24-.688.43a.927.927 0 0 0-.237.645v.215h-3.794a1.023 1.023 0 0 1-.024-.191v-.24c0-.747.229-1.4.688-1.957.474-.557 1.146-.987 2.015-1.289.87-.302 1.922-.454 3.155-.454 1.154 0 2.158.144 3.012.43.869.287 1.549.724 2.039 1.313.506.59.759 1.361.759 2.316v5.371c0 .271.071.486.214.645.158.16.348.239.569.239h.806v2.411c-.174.08-.45.167-.83.263-.363.111-.806.167-1.328.167-.537 0-1.012-.072-1.423-.215a2.75 2.75 0 0 1-.996-.55 2.021 2.021 0 0 1-.522-.883h-.166c-.3.319-.656.605-1.067.86a4.464 4.464 0 0 1-1.399.573c-.522.143-1.123.215-1.803.215Zm1.447-2.698a3.13 3.13 0 0 0 1.044-.167c.316-.111.585-.263.806-.454.237-.207.419-.453.545-.74.143-.286.214-.597.214-.93v-.836c-.901 0-1.676.063-2.324.19-.649.128-1.147.327-1.495.597-.347.271-.521.613-.521 1.027 0 .302.071.557.213.764.158.19.364.334.617.43.253.08.553.119.901.119ZM158.415 21.08V8.5h3.202l.285 1.79h.166a5.6 5.6 0 0 1 1.091-1.122 4.318 4.318 0 0 1 1.399-.716 5.66 5.66 0 0 1 1.66-.239c.901 0 1.66.168 2.277.502a3.323 3.323 0 0 1 1.446 1.504c.332.668.498 1.52.498 2.554v8.308h-3.889v-7.759c0-.35-.047-.644-.142-.883a1.698 1.698 0 0 0-.356-.645 1.37 1.37 0 0 0-.593-.381 2.527 2.527 0 0 0-.806-.12c-.459 0-.862.112-1.21.334a2.277 2.277 0 0 0-.83.86c-.205.35-.308.764-.308 1.241v7.353h-3.89ZM182.211 21.08V8.19h-5.288v-3.51h14.822v3.51h-5.289V21.08h-4.245ZM192.16 21.08V8.5h3.202l.284 1.934h.166c.19-.43.419-.812.688-1.146a2.97 2.97 0 0 1 1.02-.812 3.17 3.17 0 0 1 1.352-.286c.284 0 .545.031.782.095.238.048.411.104.522.167v3.414h-1.233c-.49 0-.925.072-1.304.215a2.005 2.005 0 0 0-.902.62c-.237.271-.411.606-.521 1.003-.111.398-.166.86-.166 1.385v5.992h-3.89ZM205.073 21.367a7.15 7.15 0 0 1-1.542-.167 3.995 3.995 0 0 1-1.352-.526 2.915 2.915 0 0 1-.948-1.098c-.238-.461-.356-1.042-.356-1.742 0-.908.19-1.648.569-2.22.38-.574.925-1.02 1.637-1.338.727-.334 1.596-.565 2.608-.692a28.152 28.152 0 0 1 3.439-.191v-.788c0-.366-.071-.668-.213-.907a1.336 1.336 0 0 0-.641-.573c-.268-.143-.632-.215-1.091-.215-.411 0-.774.048-1.091.143-.3.096-.529.24-.687.43a.927.927 0 0 0-.237.645v.215h-3.795a1.023 1.023 0 0 1-.024-.191v-.24c0-.747.229-1.4.688-1.957.474-.557 1.146-.987 2.016-1.289.869-.302 1.921-.454 3.154-.454 1.154 0 2.158.144 3.012.43.87.287 1.55.724 2.04 1.313.506.59.759 1.361.759 2.316v5.371c0 .271.071.486.213.645.158.16.348.239.569.239h.807v2.411a5.26 5.26 0 0 1-.83.263c-.364.111-.807.167-1.329.167a4.326 4.326 0 0 1-1.423-.215 2.75 2.75 0 0 1-.996-.55 2.01 2.01 0 0 1-.521-.883h-.166a5.301 5.301 0 0 1-1.068.86 4.454 4.454 0 0 1-1.399.573c-.522.143-1.122.215-1.802.215Zm1.446-2.698c.38 0 .728-.056 1.044-.167.316-.111.585-.263.806-.454.237-.207.419-.453.546-.74.142-.286.213-.597.213-.93v-.836c-.901 0-1.676.063-2.324.19-.648.128-1.146.327-1.494.597-.348.271-.522.613-.522 1.027 0 .302.071.557.214.764.158.19.363.334.616.43.253.08.554.119.901.119ZM216.201 6.804V3.796h3.889v3.008h-3.889Zm0 14.276V8.5h3.889V21.08h-3.889ZM223.033 21.08V8.5h3.202l.284 1.79h.166c.316-.43.68-.803 1.091-1.122a4.328 4.328 0 0 1 1.399-.716 5.667 5.667 0 0 1 1.661-.239c.901 0 1.66.168 2.276.502a3.32 3.32 0 0 1 1.447 1.504c.332.668.498 1.52.498 2.554v8.308h-3.889v-7.759c0-.35-.048-.644-.143-.883a1.696 1.696 0 0 0-.355-.645 1.37 1.37 0 0 0-.593-.381 2.529 2.529 0 0 0-.807-.12c-.458 0-.861.112-1.209.334a2.27 2.27 0 0 0-.83.86c-.206.35-.309.764-.309 1.241v7.353h-3.889ZM247.161 21.08l-5.858-16.4h4.554l2.988 9.262c.063.191.142.446.237.764.095.302.19.62.285.955.11.318.197.605.26.86h.167c.079-.24.158-.51.237-.812.095-.319.189-.629.284-.931.095-.319.174-.59.237-.812l2.989-9.287h4.387l-5.834 16.401h-4.933ZM261.908 21.367a7.148 7.148 0 0 1-1.541-.167 3.995 3.995 0 0 1-1.352-.526 2.926 2.926 0 0 1-.949-1.098c-.237-.461-.355-1.042-.355-1.742 0-.908.189-1.648.569-2.22.379-.574.925-1.02 1.636-1.338.728-.334 1.597-.565 2.609-.692a28.152 28.152 0 0 1 3.439-.191v-.788c0-.366-.071-.668-.213-.907a1.336 1.336 0 0 0-.641-.573c-.269-.143-.632-.215-1.091-.215-.411 0-.775.048-1.091.143-.3.096-.529.24-.688.43a.927.927 0 0 0-.237.645v.215h-3.794a1.023 1.023 0 0 1-.024-.191v-.24c0-.747.229-1.4.688-1.957.474-.557 1.146-.987 2.016-1.289.869-.302 1.921-.454 3.154-.454 1.154 0 2.158.144 3.012.43.869.287 1.549.724 2.04 1.313.505.59.758 1.361.758 2.316v5.371c0 .271.072.486.214.645.158.16.348.239.569.239h.806v2.411c-.173.08-.45.167-.83.263-.363.111-.806.167-1.328.167-.537 0-1.012-.072-1.423-.215a2.75 2.75 0 0 1-.996-.55 2.021 2.021 0 0 1-.522-.883h-.166c-.3.319-.656.605-1.067.86a4.464 4.464 0 0 1-1.399.573c-.522.143-1.123.215-1.803.215Zm1.447-2.698c.38 0 .727-.056 1.044-.167.316-.111.585-.263.806-.454.237-.207.419-.453.546-.74.142-.286.213-.597.213-.93v-.836c-.901 0-1.676.063-2.324.19-.648.128-1.147.327-1.494.597-.348.271-.522.613-.522 1.027 0 .302.071.557.213.764.158.19.364.334.617.43.253.08.553.119.901.119ZM278.942 21.367c-1.376 0-2.546-.239-3.51-.716a5 5 0 0 1-2.23-2.173c-.506-.987-.758-2.22-.758-3.7s.26-2.706.782-3.677c.522-.987 1.265-1.719 2.229-2.196.965-.478 2.127-.716 3.487-.716.885 0 1.699.103 2.443.31.758.207 1.415.525 1.968.955.569.43 1.004.97 1.304 1.623.301.653.451 1.433.451 2.34h-3.818c0-.541-.095-.987-.285-1.337a1.712 1.712 0 0 0-.783-.788c-.347-.175-.782-.262-1.304-.262-.601 0-1.091.127-1.47.382-.364.254-.633.628-.807 1.122-.174.493-.261 1.106-.261 1.838v.86c0 .716.087 1.32.261 1.814.174.493.459.867.854 1.122.395.238.901.358 1.518.358.538 0 .98-.08 1.328-.239.364-.175.64-.438.83-.788.19-.366.285-.82.285-1.36h3.652c0 .875-.15 1.647-.451 2.315a4.296 4.296 0 0 1-1.28 1.624c-.554.43-1.21.756-1.969.978a9.35 9.35 0 0 1-2.466.31ZM291.044 21.367a7.148 7.148 0 0 1-1.541-.167 3.995 3.995 0 0 1-1.352-.526 2.917 2.917 0 0 1-.949-1.098c-.237-.461-.355-1.042-.355-1.742 0-.908.189-1.648.569-2.22.379-.574.925-1.02 1.636-1.338.727-.334 1.597-.565 2.609-.692a28.152 28.152 0 0 1 3.439-.191v-.788c0-.366-.071-.668-.214-.907a1.329 1.329 0 0 0-.64-.573c-.269-.143-.632-.215-1.091-.215-.411 0-.775.048-1.091.143-.3.096-.53.24-.688.43a.927.927 0 0 0-.237.645v.215h-3.794a1.023 1.023 0 0 1-.024-.191v-.24c0-.747.229-1.4.688-1.957.474-.557 1.146-.987 2.016-1.289.869-.302 1.921-.454 3.154-.454 1.154 0 2.158.144 3.012.43.869.287 1.549.724 2.039 1.313.506.59.759 1.361.759 2.316v5.371c0 .271.071.486.214.645.158.16.348.239.569.239h.806v2.411c-.174.08-.45.167-.83.263-.363.111-.806.167-1.328.167-.537 0-1.012-.072-1.423-.215a2.75 2.75 0 0 1-.996-.55 2.021 2.021 0 0 1-.522-.883h-.166c-.3.319-.656.605-1.067.86a4.464 4.464 0 0 1-1.399.573c-.522.143-1.123.215-1.803.215Zm1.447-2.698a3.13 3.13 0 0 0 1.044-.167c.316-.111.585-.263.806-.454.237-.207.419-.453.545-.74.143-.286.214-.597.214-.93v-.836c-.901 0-1.676.063-2.324.19-.649.128-1.147.327-1.495.597-.347.271-.521.613-.521 1.027 0 .302.071.557.213.764.158.19.364.334.617.43.253.08.553.119.901.119ZM306.56 21.367c-.807 0-1.494-.12-2.064-.358a2.712 2.712 0 0 1-1.256-1.122c-.269-.494-.404-1.09-.404-1.79V11.34H301.2V8.499h1.755l.806-3.677h2.941V8.5h2.443v2.84h-2.443v5.802c0 .446.087.788.261 1.027.174.238.49.358.949.358h1.233v2.435a8.26 8.26 0 0 1-.783.19c-.3.08-.608.136-.925.168a8.796 8.796 0 0 1-.877.048ZM311.298 6.804V3.796h3.889v3.008h-3.889Zm0 14.276V8.5h3.889V21.08h-3.889ZM324.178 21.367c-1.392 0-2.586-.239-3.582-.716a5.103 5.103 0 0 1-2.276-2.173c-.522-.987-.783-2.22-.783-3.7s.261-2.706.783-3.677a5.103 5.103 0 0 1 2.276-2.172c.996-.478 2.19-.717 3.582-.717 1.407 0 2.6.24 3.581.717a4.947 4.947 0 0 1 2.276 2.172c.538.971.807 2.196.807 3.677 0 1.48-.269 2.713-.807 3.7a4.947 4.947 0 0 1-2.276 2.172c-.981.478-2.174.717-3.581.717Zm0-2.841c.648 0 1.17-.128 1.565-.382a2.09 2.09 0 0 0 .877-1.098c.19-.494.285-1.098.285-1.815v-.883c0-.716-.095-1.321-.285-1.814-.174-.494-.466-.86-.877-1.099-.395-.254-.917-.382-1.565-.382-.633 0-1.155.128-1.566.382-.395.24-.688.605-.877 1.099-.174.493-.261 1.098-.261 1.814v.883c0 .716.087 1.321.261 1.815.189.477.482.843.877 1.098.411.255.933.382 1.566.382ZM333.184 21.08V8.5h3.202l.284 1.79h.166c.317-.43.68-.803 1.091-1.122a4.333 4.333 0 0 1 1.4-.716 5.655 5.655 0 0 1 1.66-.239c.901 0 1.66.168 2.277.502a3.323 3.323 0 0 1 1.446 1.504c.332.668.498 1.52.498 2.554v8.308h-3.889v-7.759c0-.35-.048-.644-.142-.883a1.698 1.698 0 0 0-.356-.645 1.37 1.37 0 0 0-.593-.381 2.527 2.527 0 0 0-.806-.12c-.459 0-.862.112-1.21.334a2.27 2.27 0 0 0-.83.86c-.206.35-.308.764-.308 1.241v7.353h-3.89ZM353.459 21.367a9.903 9.903 0 0 1-2.324-.263 6.776 6.776 0 0 1-1.897-.764 3.996 3.996 0 0 1-1.281-1.241c-.3-.494-.45-1.067-.45-1.72v-.166c0-.064.007-.12.023-.167h3.676v.215c.016.35.127.644.332.883.222.223.506.39.854.501a4.29 4.29 0 0 0 1.139.143c.3 0 .616-.031.948-.095.348-.064.641-.175.878-.334.237-.16.355-.39.355-.693 0-.334-.15-.588-.45-.764-.285-.175-.672-.318-1.162-.43a25.017 25.017 0 0 0-1.542-.357 37.838 37.838 0 0 1-1.684-.43 7.008 7.008 0 0 1-1.541-.645 3.512 3.512 0 0 1-1.115-1.098c-.284-.446-.427-1.01-.427-1.695 0-.732.15-1.353.451-1.862a3.626 3.626 0 0 1 1.28-1.265 5.974 5.974 0 0 1 1.85-.693 11.406 11.406 0 0 1 2.253-.215c.728 0 1.415.072 2.064.215a6.066 6.066 0 0 1 1.778.669c.538.286.957.66 1.257 1.122.301.446.451.97.451 1.575 0 .08-.008.168-.024.263v.167h-3.652v-.19a.908.908 0 0 0-.261-.67c-.174-.174-.411-.31-.711-.405a2.85 2.85 0 0 0-.996-.167c-.238 0-.475.024-.712.071a2.53 2.53 0 0 0-.617.168c-.189.063-.347.159-.474.286a.7.7 0 0 0-.166.477c0 .24.103.438.308.597.206.144.483.263.83.358.364.096.759.2 1.186.31.585.128 1.202.263 1.85.407a8.439 8.439 0 0 1 1.826.573 3.109 3.109 0 0 1 1.4 1.098c.363.477.545 1.138.545 1.981 0 .796-.158 1.473-.474 2.03a3.69 3.69 0 0 1-1.305 1.313c-.553.318-1.193.549-1.921.692-.727.143-1.51.215-2.348.215ZM63.974 40.76c-.717 0-1.319-.175-1.805-.525a3.29 3.29 0 0 1-1.103-1.432c-.25-.601-.375-1.279-.375-2.033 0-.755.122-1.433.368-2.034.25-.6.615-1.073 1.096-1.418.486-.35 1.083-.524 1.791-.524.704 0 1.31.174 1.819.524.513.345.91.817 1.187 1.418.278.597.416 1.274.416 2.034 0 .754-.138 1.434-.416 2.04a3.384 3.384 0 0 1-1.173 1.425c-.505.35-1.106.524-1.805.524Zm-3.526-.21V30.488h1.457v4.633h-.166v5.429h-1.291Zm3.325-1.111c.462 0 .844-.12 1.145-.357.305-.237.532-.556.68-.957.153-.405.23-.857.23-1.355a3.74 3.74 0 0 0-.23-1.342c-.148-.4-.377-.72-.687-.957-.31-.238-.706-.357-1.187-.357-.453 0-.828.112-1.124.336-.292.223-.51.535-.653.936-.139.4-.208.862-.208 1.384 0 .521.07.982.208 1.383.139.4.359.715.66.943.3.229.689.343 1.166.343ZM69.453 43.904l1.451-3.976.021 1.174-3.27-8.099h1.514l2.443 6.254h-.444l2.332-6.254h1.472l-4.137 10.9h-1.382ZM78.838 40.55V30.488h5.921v1.46h-4.47v2.837h3.638v1.468h-3.638v4.297h-1.45ZM86.01 40.55v-7.547h1.291v1.831l-.18-.238a2.78 2.78 0 0 1 .36-.663c.149-.205.32-.373.515-.503.19-.14.4-.247.631-.322.236-.079.477-.126.722-.14.245-.018.481-.007.708.035v1.37a2.338 2.338 0 0 0-.819-.056c-.296.028-.57.123-.819.286-.236.154-.423.34-.562.56a2.382 2.382 0 0 0-.292.733c-.06.266-.09.547-.09.846v3.808H86.01ZM94.568 40.76c-.745 0-1.4-.164-1.964-.49-.56-.33-.997-.79-1.312-1.376-.31-.592-.465-1.277-.465-2.055 0-.824.153-1.54.458-2.145.31-.605.74-1.073 1.291-1.404.55-.33 1.192-.496 1.923-.496.764 0 1.414.18 1.95.538.537.354.938.86 1.201 1.516.269.657.375 1.437.32 2.34h-1.451v-.53c-.01-.876-.176-1.523-.5-1.943-.32-.419-.807-.629-1.465-.629-.726 0-1.272.231-1.638.692-.365.461-.548 1.128-.548 1.998 0 .83.183 1.472.548 1.93.366.45.893.677 1.583.677.453 0 .845-.103 1.173-.308.333-.21.592-.507.778-.894l1.422.454a3.394 3.394 0 0 1-1.325 1.572 3.673 3.673 0 0 1-1.979.552Zm-2.672-3.571v-1.14h5.352v1.14h-5.352ZM102.394 40.752c-.912 0-1.655-.202-2.228-.608-.574-.405-.926-.975-1.055-1.712l1.485-.23c.093.391.305.701.639.93.337.223.756.335 1.256.335.453 0 .807-.093 1.062-.28a.896.896 0 0 0 .389-.768.723.723 0 0 0-.139-.462c-.088-.12-.275-.235-.562-.342-.287-.107-.725-.24-1.312-.398-.644-.168-1.155-.347-1.534-.538-.375-.196-.644-.422-.805-.678-.158-.26-.237-.575-.237-.943 0-.457.12-.855.361-1.195.241-.34.579-.603 1.014-.79.439-.186.953-.28 1.541-.28.574 0 1.085.092 1.534.273.449.182.812.44 1.09.776.277.33.444.72.499 1.167l-1.485.272a1.232 1.232 0 0 0-.507-.86c-.287-.209-.659-.323-1.117-.342-.44-.018-.796.056-1.069.224-.273.163-.41.389-.41.678 0 .167.051.31.153.426.106.117.31.228.611.335.301.108.745.236 1.332.385.63.163 1.13.344 1.5.545.37.195.634.43.791.706.162.27.243.598.243.985 0 .745-.271 1.33-.812 1.754-.537.423-1.28.635-2.228.635ZM112.232 40.55v-3.71c0-.294-.026-.595-.077-.902a2.729 2.729 0 0 0-.277-.866 1.643 1.643 0 0 0-.577-.643c-.245-.163-.566-.245-.964-.245-.26 0-.505.044-.736.133a1.53 1.53 0 0 0-.611.412c-.171.191-.308.443-.41.755-.097.312-.145.692-.145 1.139l-.903-.343c0-.684.127-1.288.382-1.81.255-.526.62-.936 1.097-1.229.476-.294 1.053-.44 1.728-.44.518 0 .953.084 1.305.251.352.168.636.39.854.664.222.27.391.566.507.887.115.322.194.636.236.944.041.307.062.577.062.81v4.193h-1.471Zm-5.269 0V30.488h1.298v5.43h.174v4.632h-1.472ZM120.782 40.55v-8.686h-3.325v-1.376h8.101v1.376h-3.325v8.686h-1.451ZM125.977 40.55v-7.547h1.291v1.831l-.18-.238c.093-.242.213-.463.361-.663.148-.205.319-.373.514-.503.189-.14.4-.247.631-.322.236-.079.477-.126.722-.14.245-.018.481-.007.708.035v1.37a2.336 2.336 0 0 0-.819-.056 1.785 1.785 0 0 0-.819.286c-.236.154-.423.34-.562.56a2.385 2.385 0 0 0-.292.733c-.06.266-.09.547-.09.846v3.808h-1.465ZM133.246 40.76c-.555 0-1.02-.103-1.395-.308a2.186 2.186 0 0 1-.854-.825 2.316 2.316 0 0 1-.284-1.132c0-.381.067-.717.201-1.006.134-.289.333-.533.597-.733a3.19 3.19 0 0 1 .972-.496c.333-.098.71-.184 1.131-.259.421-.075.863-.145 1.326-.21l1.388-.195-.527.293c.009-.591-.116-1.03-.375-1.314-.255-.288-.694-.433-1.319-.433a2.16 2.16 0 0 0-1.083.28c-.328.181-.557.484-.687.908l-1.354-.42a2.83 2.83 0 0 1 1.055-1.543c.523-.382 1.218-.573 2.083-.573.671 0 1.254.116 1.749.35.5.227.865.59 1.097 1.09.12.246.194.507.222.782.028.275.042.57.042.887v4.647h-1.285v-1.726l.25.223c-.31.578-.705 1.009-1.187 1.293-.476.28-1.064.42-1.763.42Zm.257-1.195c.412 0 .766-.073 1.062-.217a2.09 2.09 0 0 0 .715-.566c.181-.228.299-.466.354-.713a2.5 2.5 0 0 0 .132-.754c.014-.28.021-.503.021-.671l.472.175c-.458.07-.875.132-1.25.188-.374.056-.715.112-1.02.168a6.08 6.08 0 0 0-.805.189c-.199.07-.377.153-.535.251a1.243 1.243 0 0 0-.368.356.947.947 0 0 0-.131.51c0 .196.048.378.145.545.097.163.246.294.445.392.199.098.453.147.763.147ZM142.24 40.76c-.768 0-1.421-.173-1.957-.518a3.374 3.374 0 0 1-1.236-1.418c-.282-.601-.426-1.283-.43-2.047.004-.778.152-1.465.444-2.062.291-.6.708-1.071 1.249-1.411.542-.34 1.192-.51 1.951-.51.819 0 1.518.205 2.096.615.583.41.967.97 1.152 1.684l-1.443.419c-.144-.424-.38-.752-.708-.985a1.842 1.842 0 0 0-1.118-.357c-.477 0-.868.114-1.173.343a1.979 1.979 0 0 0-.68.922 3.862 3.862 0 0 0-.229 1.341c.004.778.18 1.407.527 1.887.352.48.87.72 1.555.72.467 0 .845-.107 1.131-.322.292-.218.514-.53.667-.936l1.471.35c-.245.736-.65 1.301-1.214 1.697-.565.392-1.25.587-2.055.587ZM146.917 40.55l.006-10.062h1.472v6.149l2.943-3.634h1.847l-3.11 3.773 3.429 3.774h-1.971l-3.138-3.634v3.634h-1.478ZM156.935 40.752c-.912 0-1.654-.202-2.228-.608-.574-.405-.926-.975-1.055-1.712l1.485-.23c.093.391.306.701.639.93.338.223.756.335 1.256.335.454 0 .808-.093 1.062-.28a.896.896 0 0 0 .389-.768.717.717 0 0 0-.139-.462c-.088-.12-.275-.235-.562-.342a15.9 15.9 0 0 0-1.312-.398c-.643-.168-1.155-.347-1.534-.538-.375-.196-.643-.422-.805-.678-.158-.26-.236-.575-.236-.943 0-.457.12-.855.361-1.195.24-.34.578-.603 1.013-.79.44-.186.953-.28 1.541-.28.574 0 1.085.092 1.534.273.449.182.812.44 1.09.776.278.33.444.72.5 1.167l-1.486.272a1.232 1.232 0 0 0-.507-.86c-.286-.209-.659-.323-1.117-.342-.44-.018-.796.056-1.069.224-.273.163-.41.389-.41.678 0 .167.051.31.153.426.107.117.31.228.611.335.301.108.745.236 1.333.385.629.163 1.129.344 1.499.545.37.195.634.43.791.706.162.27.243.598.243.985 0 .745-.27 1.33-.812 1.754-.537.423-1.279.635-2.228.635ZM168.462 40.76c-.999 0-1.851-.22-2.554-.657a4.316 4.316 0 0 1-1.618-1.845c-.37-.787-.555-1.7-.555-2.74 0-1.038.185-1.951.555-2.738.375-.788.914-1.4 1.618-1.838.703-.442 1.555-.664 2.554-.664 1.152 0 2.106.294 2.86.88.759.588 1.287 1.377 1.583 2.37l-1.472.398c-.194-.704-.541-1.256-1.041-1.656-.495-.4-1.138-.601-1.93-.601-.708 0-1.298.16-1.77.482-.472.321-.828.77-1.069 1.348-.236.578-.354 1.251-.354 2.02-.004.768.111 1.442.347 2.02.241.577.597 1.026 1.069 1.348.477.321 1.069.482 1.777.482.792 0 1.435-.2 1.93-.601.5-.405.847-.957 1.041-1.656l1.472.398c-.296.992-.824 1.782-1.583 2.369-.754.587-1.708.88-2.86.88ZM176.548 40.76c-.555 0-1.02-.103-1.395-.308a2.186 2.186 0 0 1-.854-.825 2.316 2.316 0 0 1-.284-1.132c0-.381.067-.717.201-1.006.134-.289.333-.533.597-.733a3.19 3.19 0 0 1 .972-.496c.333-.098.71-.184 1.131-.259.421-.075.863-.145 1.326-.21l1.388-.195-.527.293c.009-.591-.116-1.03-.375-1.314-.254-.288-.694-.433-1.319-.433a2.16 2.16 0 0 0-1.083.28c-.328.181-.557.484-.687.908l-1.353-.42a2.819 2.819 0 0 1 1.055-1.543c.523-.382 1.217-.573 2.082-.573.671 0 1.254.116 1.749.35.5.227.866.59 1.097 1.09.12.246.194.507.222.782.028.275.042.57.042.887v4.647h-1.284v-1.726l.25.223c-.311.578-.706 1.009-1.187 1.293-.477.28-1.065.42-1.764.42Zm.257-1.195c.412 0 .766-.073 1.062-.217a2.09 2.09 0 0 0 .715-.566c.181-.228.299-.466.354-.713a2.5 2.5 0 0 0 .132-.754c.014-.28.021-.503.021-.671l.472.175c-.458.07-.875.132-1.249.188-.375.056-.715.112-1.021.168a6.08 6.08 0 0 0-.805.189c-.199.07-.377.153-.534.251a1.22 1.22 0 0 0-.368.356.938.938 0 0 0-.132.51c0 .196.048.378.145.545.098.163.246.294.445.392.199.098.453.147.763.147ZM187.597 40.55v-3.71c0-.294-.026-.595-.077-.902a2.704 2.704 0 0 0-.277-.866 1.633 1.633 0 0 0-.576-.643c-.246-.163-.567-.245-.965-.245-.259 0-.505.044-.736.133a1.537 1.537 0 0 0-.611.412c-.171.191-.308.443-.409.755-.097.312-.146.692-.146 1.139l-.902-.343c0-.684.127-1.288.381-1.81.255-.526.62-.936 1.097-1.229.477-.294 1.053-.44 1.728-.44.519 0 .954.084 1.305.251.352.168.637.39.854.664.222.27.391.566.507.887.116.322.194.636.236.944.042.307.062.577.062.81v4.193h-1.471Zm-5.269 0v-7.547h1.298v2.18h.174v5.367h-1.472ZM192.994 40.76c-.556 0-1.021-.103-1.396-.308a2.177 2.177 0 0 1-.853-.825 2.306 2.306 0 0 1-.285-1.132c0-.381.067-.717.201-1.006.134-.289.333-.533.597-.733a3.19 3.19 0 0 1 .972-.496c.333-.098.71-.184 1.131-.259.422-.075.863-.145 1.326-.21l1.389-.195-.528.293c.009-.591-.116-1.03-.375-1.314-.254-.288-.694-.433-1.319-.433a2.16 2.16 0 0 0-1.083.28c-.328.181-.557.484-.687.908l-1.353-.42a2.819 2.819 0 0 1 1.055-1.543c.523-.382 1.217-.573 2.082-.573.671 0 1.254.116 1.749.35.5.227.866.59 1.097 1.09.12.246.194.507.222.782.028.275.042.57.042.887v4.647h-1.284v-1.726l.25.223c-.31.578-.706 1.009-1.187 1.293-.477.28-1.065.42-1.763.42Zm.256-1.195c.412 0 .766-.073 1.062-.217a2.08 2.08 0 0 0 .715-.566c.181-.228.299-.466.354-.713a2.5 2.5 0 0 0 .132-.754c.014-.28.021-.503.021-.671l.472.175c-.458.07-.875.132-1.249.188-.375.056-.715.112-1.021.168a6.08 6.08 0 0 0-.805.189c-.199.07-.377.153-.534.251a1.22 1.22 0 0 0-.368.356.938.938 0 0 0-.132.51c0 .196.048.378.146.545.097.163.245.294.444.392.199.098.453.147.763.147ZM201.758 40.76c-.699 0-1.302-.175-1.811-.525a3.453 3.453 0 0 1-1.174-1.425c-.273-.606-.409-1.286-.409-2.04 0-.76.139-1.438.416-2.034.278-.6.671-1.073 1.18-1.418.514-.35 1.123-.524 1.826-.524.708 0 1.303.174 1.784.524.486.345.851.817 1.097 1.418.25.601.374 1.279.374 2.034 0 .754-.124 1.432-.374 2.033a3.29 3.29 0 0 1-1.104 1.432c-.486.35-1.088.524-1.805.524Zm.201-1.321c.477 0 .866-.114 1.167-.343.3-.228.52-.542.659-.943.139-.4.208-.862.208-1.383 0-.522-.071-.983-.215-1.384-.139-.4-.356-.713-.652-.936-.292-.224-.664-.336-1.118-.336-.481 0-.877.12-1.187.357-.31.237-.541.556-.694.957-.148.4-.222.848-.222 1.342 0 .498.074.95.222 1.355.153.4.379.72.68.957.306.238.69.357 1.152.357Zm2.034 1.11v-5.428h-.166v-4.633h1.457V40.55h-1.291ZM209.344 40.76c-.556 0-1.021-.103-1.396-.308a2.183 2.183 0 0 1-.853-.825 2.306 2.306 0 0 1-.285-1.132c0-.381.067-.717.201-1.006a1.95 1.95 0 0 1 .597-.733 3.19 3.19 0 0 1 .972-.496c.333-.098.71-.184 1.132-.259.421-.075.863-.145 1.325-.21l1.389-.195-.528.293c.009-.591-.116-1.03-.375-1.314-.254-.288-.694-.433-1.319-.433-.393 0-.754.093-1.082.28-.329.181-.558.484-.688.908l-1.353-.42a2.824 2.824 0 0 1 1.055-1.543c.523-.382 1.217-.573 2.082-.573.671 0 1.254.116 1.75.35.499.227.865.59 1.096 1.09.121.246.195.507.222.782.028.275.042.57.042.887v4.647h-1.284v-1.726l.25.223c-.31.578-.706 1.009-1.187 1.293-.477.28-1.065.42-1.763.42Zm.257-1.195c.411 0 .765-.073 1.062-.217a2.1 2.1 0 0 0 .715-.566c.18-.228.298-.466.354-.713.078-.223.122-.475.131-.754.014-.28.021-.503.021-.671l.472.175c-.458.07-.874.132-1.249.188-.375.056-.715.112-1.021.168-.3.051-.569.114-.805.189-.199.07-.377.153-.534.251a1.22 1.22 0 0 0-.368.356.938.938 0 0 0-.132.51c0 .196.049.378.146.545.097.163.245.294.444.392.199.098.453.147.764.147Z" fill="#2E2E2B"/></svg>